<svg aria-hidden="true" style="position:absolute;width:0;height:0;overflow:hidden" xmlns="http://www.w3.org/2000/svg"><defs><symbol id="icon-antenna" viewBox="0 0 32 32"><path fill="#212121" style="fill:var(--color1, #212121)" d="m30.773 22.098-8.443-8.505.937-4.616c.225.09.485.144.758.146h.033a2.16 2.16 0 1 0-2.029-1.42l-.005-.015-4.96.606L8.973.161a.53.53 0 0 0-.376-.16.536.536 0 0 0-.373.155L6.712 1.66a.535.535 0 0 0 0 .754l.814.825C6.383 5.301 5.71 7.761 5.71 10.378c0 4.106 1.656 7.824 4.336 10.525l-.001-.001a.49.49 0 0 0 .146.097 2.986 2.986 0 0 0-.052.546v6.188h-6.4a2.669 2.669 0 0 0-2.667 2.666v1.067c0 .295.239.534.534.534H26.14a.534.534 0 0 0 .533-.534v-1.067a2.67 2.67 0 0 0-2.666-2.666h-6.4v-2.742a14.784 14.784 0 0 0 10.166-1.502l-.077.039.818.823a.534.534 0 0 0 .376.16.536.536 0 0 0 .373-.155l1.512-1.504a.535.535 0 0 0 0-.754zM23.28 6.233a1.067 1.067 0 1 1 .752 1.822h-.004a1.066 1.066 0 0 1-.747-1.822h-.002zm-1.256 3.504-.598 2.946-1.175-1.183 1.774-1.763zm-.605-.902-1.92 1.909-1.486-1.493 3.406-.416zM24.004 28.8a1.6 1.6 0 0 1 1.6 1.6v.534H2.138V30.4a1.6 1.6 0 0 1 1.6-1.6h20.267zm-7.466-2.134v1.067h-5.334v-1.067h5.334zM11.204 25.6v-4.053c0-1.294 1.196-2.346 2.667-2.346s2.667 1.053 2.667 2.346V25.6h-5.334zm6.4-1.696v-2.357c0-1.882-1.675-3.413-3.733-3.413h-.058c-1.353 0-2.54.707-3.213 1.771l-.009.016a13.817 13.817 0 0 1-3.812-9.55c0-2.314.567-4.496 1.569-6.414l-.036.077 18.602 18.709c-1.823.947-3.979 1.502-6.266 1.502-1.079 0-2.128-.124-3.136-.357l.093.018zm11.289-.684L7.836 2.039l.754-.752 7.935 7.98c.004 0 .006.007.01.01l13.114 13.191-.757.752z"/><path fill="#2196f3" style="fill:var(--color2, #2196f3)" d="M13.876 20.267h-.007a1.6 1.6 0 0 0-.003 3.2h.007a1.6 1.6 0 0 0 .002-3.2zm.373 1.978a.534.534 0 1 1-.378-.912.533.533 0 0 1 .374.911h.005z"/></symbol><symbol id="icon-astronaut" viewBox="0 0 32 32"><path fill="#2196f3" style="fill:var(--color2, #2196f3)" d="M31.974 4.524a.535.535 0 0 0-.427-.362h-.003l-1.911-.278-.855-1.731c-.179-.365-.777-.365-.956 0l-.855 1.731-1.911.278a.534.534 0 0 0-.296.91l1.383 1.348-.326 1.903a.532.532 0 0 0 .774.562l1.709-.899 1.709.899a.534.534 0 0 0 .773-.565v.003l-.326-1.903 1.383-1.348a.535.535 0 0 0 .134-.55l.001.004zm-2.463 1.327a.53.53 0 0 0-.153.472l.191 1.114-1-.526a.525.525 0 0 0-.501.001l.003-.001-1 .526.191-1.114a.53.53 0 0 0-.152-.472l-.811-.79 1.119-.162a.532.532 0 0 0 .402-.292l.5-1.013.5 1.013a.532.532 0 0 0 .402.292l1.119.162-.809.79zm-3.377 14.671h-1.067v1.067h1.067v-1.067zm0 2.134h-1.067v1.066h1.067v-1.066zm1.066-1.067h-1.067v1.067H27.2v-1.067zm-2.133 0H24v1.067h1.067v-1.067zm-2.667 4.8h-1.067v1.067H22.4v-1.067zm0 2.134h-1.067v1.067H22.4v-1.067zm1.067-1.067H22.4v1.067h1.067v-1.067zm-2.133 0h-1.067v1.067h1.067v-1.067zM16 24.256h-1.066v1.067H16v-1.067zm0 2.133h-1.066v1.067H16v-1.067zm1.067-1.067H16v1.067h1.067v-1.067zm-2.133 0h-1.067v1.067h1.067v-1.067zm-9.067-19.2H4.801v1.066h1.066V6.122zm0 2.134H4.801v1.066h1.066V8.256zm1.066-1.067H5.866v1.067h1.066V7.189zm-2.133 0H3.733v1.067H4.8V7.189z"/><path fill="#212121" style="fill:var(--color1, #212121)" d="M24.715 14.16a1.774 1.774 0 0 0-1.179-.703l-.009-.001a1.769 1.769 0 0 0-1.344.355l.004-.003-1.253.96-1.898 1.417-1.358-.541c2.421-1.086 4.113-3.508 4.113-6.32 0-3.823-3.122-6.934-6.961-6.934S7.869 5.5 7.869 9.324c0 1.386.415 2.674 1.12 3.759l-2.768-.024c-.009 0-.016.005-.023.005a.511.511 0 0 0-.159.033l.004-.001c-.013.005-.026.007-.038.013-.006.003-.013.003-.019.006l-3.233 1.596-.001.001-1.893.91a.5.5 0 0 0-.065.036l.001-.001a1.782 1.782 0 0 0-.594 2.306l-.005-.01c.22.424.592.742 1.043.885l.013.003a1.772 1.772 0 0 0 1.388-.133l-.009.005 1.388-.738 2.264-1.169 1.357-.008-5.442 5.415-.001.001-1.339 1.333a1.643 1.643 0 0 0-.491 1.173v.005a1.668 1.668 0 0 0 1.667 1.664h.002a1.67 1.67 0 0 0 1.18-.485l1.314-1.309 1.741-1.3.901.897L4.07 27.28a1.643 1.643 0 0 0-.491 1.173v.004a1.662 1.662 0 0 0 1.666 1.664h.003a1.67 1.67 0 0 0 1.18-.485l4.488-4.472c.007-.006.016-.009.022-.016l5.166-5.658 3.471.494a.474.474 0 0 0 .262-.032c.017-.006.032-.015.049-.023.019-.01.039-.015.058-.027l3.213-2.133c.012-.008.018-.021.029-.03.013-.01.029-.014.041-.026l1.271-1.191c.348-.326.564-.787.564-1.3 0-.4-.132-.769-.355-1.066l.003.005zM2.13 17.77a.706.706 0 0 1-.564.05l.005.001a.717.717 0 0 1-.215-1.258l.002-.001 1.314-.632.316.924.133.389-.992.527zm3.497-1.828-1.548.8-.255-.746-.184-.537 2.027-1.001-.04 1.484zm15.1-6.62c0 .918-.219 1.785-.599 2.56l-4.181-1.899a1.865 1.865 0 0 0-.782-1.384l-.006-.004 1.464-4.861c2.377.757 4.104 2.975 4.104 5.588zm-11.789 0c0-3.235 2.644-5.867 5.894-5.867.253 0 .5.022.745.053l-1.432 4.753c-.019 0-.037-.006-.057-.006h-.001a1.872 1.872 0 0 0-1.872 1.867 1.873 1.873 0 0 0 1.872 1.867h.001c.695 0 1.295-.383 1.618-.944l3.863 1.755a5.891 5.891 0 0 1-4.737 2.39c-3.25 0-5.894-2.632-5.894-5.867zm5.957.8c0 .441-.362.8-.806.8h-.001a.804.804 0 0 1-.804-.8c0-.441.361-.8.806-.8s.806.359.806.8zM2.464 25.146a.606.606 0 0 1-.855.001.591.591 0 0 1 0-.844l.962-.959.852.848-.959.954zm3.214 3.734a.606.606 0 0 1-.855.001.591.591 0 0 1 0-.844l.963-.959.852.848-.96.955zm3.482-3.469-.001.001-1.765 1.76-.852-.848 1.765-1.757a.527.527 0 0 0 .09-.136c.007-.014.02-.026.026-.04.016-.041.019-.085.026-.128.003-.025.014-.048.014-.073 0-.035-.013-.07-.02-.105-.006-.032-.006-.064-.019-.096a.536.536 0 0 0-.092-.138c-.01-.012-.014-.026-.025-.038h-.001l-.001-.002-1.607-1.6c-.017-.017-.039-.024-.058-.038a.491.491 0 0 0-.084-.056l-.003-.001a.527.527 0 0 0-.09-.031l-.003-.001a.502.502 0 0 0-.101-.02h-.025a.603.603 0 0 0-.075.005h.003c-.036.005-.069.009-.104.021s-.064.027-.094.045c-.02.011-.043.015-.061.029l-1.774 1.324-.901-.897 2.399-2.386 4.36 4.289-.928.919zm6.819-7.017c-.016-.002-.03.004-.046.003l-.027-.001a.562.562 0 0 0-.092.008h.003a.484.484 0 0 0-.187.07l.002-.001a.492.492 0 0 0-.083.061c-.013.011-.028.016-.04.029l-4.698 5.146-4.328-4.256 2.833-2.818a.535.535 0 0 0-.378-.911h-.002l-2.219.013.028-1.607 3.104.027a6.928 6.928 0 0 0 4.978 2.101h.003c.438 0 .864-.046 1.28-.122.04.032.08.064.129.085l2.41.96.152.758.178.886-3.003-.427zm4.041.178-.313-1.558 1.446-1.08.946 1.257-2.08 1.381zm3.753-2.831-.837.785-.931-1.236.831-.637a.735.735 0 0 1 .543-.143.718.718 0 0 1 .621.71.71.71 0 0 1-.226.521z"/><path fill="#212121" style="fill:var(--color1, #212121)" d="m13.602 18.544-2.143-2.134a.53.53 0 0 0-.752 0l-2.143 2.133a.535.535 0 0 0 0 .756l2.142 2.134a.53.53 0 0 0 .752 0l2.143-2.134a.532.532 0 0 0 0-.756zm-2.519 1.759-1.387-1.381 1.386-1.381 1.387 1.381-1.387 1.381zm6.081-15.232-.258 1.036c.071.018 1.738.452 1.738 2.149h1.067c0-2.017-1.666-2.965-2.547-3.184zm2.547 4.251h-1.067v1.066h1.067V9.322z"/></symbol><symbol id="icon-clock" viewBox="0 0 32 32"><path fill="#212121" style="fill:var(--color1, #212121)" d="M31.296 15.301C31.295 6.849 24.441-.002 15.988 0S.685 6.855.687 15.308c.002 6.788 4.422 12.543 10.541 14.545l.108.031a.667.667 0 0 0 .529-.065.636.636 0 0 0 .283-.357l3.865-12.25a1.913 1.913 0 1 0-.852-3.63l.011-.005-5.106-5.107a.638.638 0 0 0-.902.902l5.103 5.109a1.847 1.847 0 0 0-.191.826c0 .602.283 1.137.723 1.48l.004.003-3.682 11.673C3.843 25.782.117 17.709 2.797 10.431S13.551-.573 20.829 2.108c7.278 2.681 11.004 10.754 8.323 18.032-1.345 3.581-4.003 6.406-7.374 7.938l-.088.036-.398-1.874a.639.639 0 0 0-1.05-.343l.001-.001-3.837 3.426a.637.637 0 0 0 .227 1.083l.005.001 4.899 1.563a.637.637 0 0 0 .818-.744l.001.004-.391-1.839c5.528-2.374 9.329-7.772 9.329-14.057v-.034.002zm-15.304-.637a.638.638 0 0 1 0 1.276.638.638 0 0 1 0-1.276zm2.1 14.864 2.184-1.948.603 2.84-2.787-.892z"/><path fill="#2196f3" style="fill:var(--color2, #2196f3)" d="M15.354 3.185V4.46a.638.638 0 0 0 1.276 0V3.185a.638.638 0 1 0-1.276 0zM3.876 14.664a.638.638 0 0 0 0 1.276h1.275a.638.638 0 0 0 0-1.276H3.876zm24.232 1.275a.638.638 0 0 0 0-1.276h-1.275a.638.638 0 0 0 0 1.276h1.275z"/></symbol><symbol id="icon-diagram" viewBox="0 0 32 32"><path fill="#2196f3" style="fill:var(--color2, #2196f3)" d="M14.926 14.965h1.066v4.798h-1.066v-4.798zm4.264 2.132h1.066v2.665H19.19v-2.665zm-8.529 1.599h1.066v1.066h-1.066v-1.066zm-3.198-.533h1.066v1.599H7.463v-1.599z"/><path fill="#212121" style="fill:var(--color1, #212121)" d="M1.599 28.291h25.586a1.6 1.6 0 0 0 1.599-1.599V24.56a1.6 1.6 0 0 0-1.599-1.599h-.533V9.667l3.028-2.868a1.608 1.608 0 1 0-.742-.752l-.004-.01-2.281 2.162v-1.23a1.6 1.6 0 0 0-1.599-1.599H3.731a1.6 1.6 0 0 0-1.599 1.599v15.992h-.533A1.6 1.6 0 0 0 0 24.56v2.132a1.6 1.6 0 0 0 1.599 1.599zM30.384 4.837a.533.533 0 0 1 0 1.066.533.533 0 0 1 0-1.066zM3.198 6.969c0-.294.239-.533.533-.533h21.323c.294 0 .533.239.533.533v2.239l-1.066 1.013V8.036a.534.534 0 0 0-.534-.534H4.798a.534.534 0 0 0-.534.533v13.327c0 .294.239.533.534.533h19.189a.534.534 0 0 0 .534-.533v-9.675l1.066-1.01V22.96H3.198V6.969zm4.798 6.93h-.005a1.6 1.6 0 1 0 1.112 2.748l1.853.93a.535.535 0 0 0 .636-.122l3.939-4.432 3.872 2.902a.534.534 0 0 0 .686-.039l3.365-3.188v8.131H5.331V8.568h18.123v2.661l-3.771 3.572-3.904-2.927a.534.534 0 0 0-.718.071v.001l-3.993 4.493-1.493-.746c.011-.064.017-.128.02-.193a1.6 1.6 0 0 0-1.599-1.599zm.533 1.599a.533.533 0 0 1-1.066 0 .533.533 0 0 1 1.066 0zm3.198 8.528h5.33v.533a.533.533 0 0 1-.533.533h-4.265a.533.533 0 0 1-.533-.533v-.533zm-10.66.534c0-.294.238-.533.533-.533h9.062v.533a1.6 1.6 0 0 0 1.599 1.599h4.265a1.6 1.6 0 0 0 1.599-1.599v-.533h9.062c.294 0 .533.239.533.533v2.132a.533.533 0 0 1-.533.533H1.601a.533.533 0 0 1-.533-.533V24.56z"/></symbol><symbol id="icon-envelope" viewBox="0 0 43 32"><path d="M38.667 0H4C1.794 0 0 1.794 0 4v24c0 2.206 1.794 4 4 4h34.667c2.206 0 4-1.794 4-4V4c0-2.206-1.794-4-4-4zm0 2.667c.181 0 .353.038.511.103L21.334 18.236 3.49 2.77a1.32 1.32 0 0 1 .511-.103h34.667zm0 26.666H4A1.334 1.334 0 0 1 2.667 28V5.587L20.46 21.008a1.335 1.335 0 0 0 1.748 0L40.001 5.587V28c0 .736-.598 1.333-1.333 1.333z"/></symbol><symbol id="icon-facebook" viewBox="0 0 32 32"><path d="M21.329 5.313h2.921V.225C23.746.156 22.013 0 19.994 0c-4.212 0-7.097 2.649-7.097 7.519V12H8.249v5.688h4.648V32h5.699V17.689h4.46l.708-5.688h-5.169V8.082c.001-1.644.444-2.769 2.735-2.769z"/></symbol><symbol id="icon-instagram" viewBox="0 0 32 32"><path d="M31.969 9.408c-.075-1.7-.35-2.869-.744-3.882a7.806 7.806 0 0 0-1.851-2.838A7.867 7.867 0 0 0 26.542.844C25.523.45 24.36.175 22.66.1 20.947.019 20.403 0 16.059 0s-4.888.019-6.595.094c-1.7.075-2.869.35-3.882.744a7.803 7.803 0 0 0-2.838 1.85A7.867 7.867 0 0 0 .9 5.52C.506 6.539.231 7.702.156 9.402c-.081 1.713-.1 2.257-.1 6.601s.019 4.888.094 6.595c.075 1.7.35 2.869.744 3.882a7.895 7.895 0 0 0 1.85 2.838 7.867 7.867 0 0 0 2.832 1.844c1.019.394 2.182.669 3.882.744 1.706.075 2.25.094 6.595.094s4.888-.019 6.595-.094c1.7-.075 2.869-.35 3.882-.744a8.184 8.184 0 0 0 4.682-4.682c.394-1.019.669-2.182.744-3.882.075-1.707.094-2.251.094-6.595s-.006-4.888-.081-6.595zm-2.882 13.065c-.069 1.563-.331 2.407-.55 2.969a5.31 5.31 0 0 1-3.038 3.038c-.563.219-1.413.481-2.969.55-1.688.075-2.194.094-6.464.094s-4.782-.019-6.464-.094c-1.563-.069-2.407-.331-2.969-.55a4.926 4.926 0 0 1-1.838-1.194 4.974 4.974 0 0 1-1.194-1.838c-.219-.563-.481-1.413-.55-2.969-.075-1.688-.094-2.194-.094-6.464s.019-4.782.094-6.464c.069-1.563.331-2.407.55-2.969a4.868 4.868 0 0 1 1.2-1.838A4.974 4.974 0 0 1 6.639 3.55c.563-.219 1.413-.481 2.969-.55 1.688-.075 2.194-.094 6.464-.094 4.276 0 4.782.019 6.464.094 1.563.069 2.407.331 2.969.55a4.914 4.914 0 0 1 1.838 1.194 4.974 4.974 0 0 1 1.194 1.838c.219.563.481 1.413.55 2.969.075 1.688.094 2.194.094 6.464s-.019 4.77-.094 6.458z"/><path d="M16.059 7.783c-4.538 0-8.22 3.682-8.22 8.22s3.682 8.22 8.22 8.22c4.539 0 8.22-3.682 8.22-8.22s-3.682-8.22-8.22-8.22zm0 13.552a5.333 5.333 0 0 1 0-10.664 5.333 5.333 0 0 1 0 10.664zM26.524 7.458a1.919 1.919 0 1 1-3.838 0 1.919 1.919 0 0 1 3.838 0z"/></symbol><symbol id="icon-linkedin" viewBox="0 0 32 32"><path d="M31.992 32v-.001H32V20.263c0-5.741-1.236-10.164-7.948-10.164-3.227 0-5.392 1.771-6.276 3.449h-.093v-2.913h-6.364v21.364h6.627V21.42c0-2.785.528-5.479 3.977-5.479 3.399 0 3.449 3.179 3.449 5.657v10.401h6.62zM.528 10.636h6.635V32H.528V10.636zM3.843 0C1.722 0 0 1.721 0 3.843s1.721 3.879 3.843 3.879c2.121 0 3.843-1.757 3.843-3.879A3.846 3.846 0 0 0 3.843 0z"/></symbol><symbol id="icon-smartphone" viewBox="0 0 20 32"><path d="M17 0H3C1.346 0 0 1.346 0 3v26c0 1.654 1.346 3 3 3h14c1.654 0 3-1.346 3-3V3c0-1.654-1.346-3-3-3zM3 2h14a1 1 0 0 1 1 1v21H2V3a1 1 0 0 1 1-1zm14 28H3a1 1 0 0 1-1-1v-3h16v3a1 1 0 0 1-1 1z"/><path d="M4.707 27.478c.391.365.391.956 0 1.321s-1.024.365-1.414 0c-.391-.365-.391-.956 0-1.321s1.024-.365 1.414 0z"/></symbol><symbol id="icon-twitter" viewBox="0 0 32 32"><path d="M32 6.078c-1.19.522-2.458.868-3.78 1.036a6.523 6.523 0 0 0 2.886-3.626 13.11 13.11 0 0 1-4.16 1.588A6.574 6.574 0 0 0 22.154 3c-3.632 0-6.556 2.948-6.556 6.562 0 .52.044 1.02.152 1.496-5.454-.266-10.28-2.88-13.522-6.862a6.605 6.605 0 0 0-.898 3.316 6.57 6.57 0 0 0 2.914 5.452 6.479 6.479 0 0 1-2.964-.808v.072c0 3.188 2.274 5.836 5.256 6.446a6.548 6.548 0 0 1-1.72.216 5.8 5.8 0 0 1-1.242-.112c.85 2.598 3.262 4.508 6.13 4.57a13.182 13.182 0 0 1-8.134 2.798c-.538 0-1.054-.024-1.57-.09A18.469 18.469 0 0 0 10.064 29c12.072 0 18.672-10 18.672-18.668 0-.29-.01-.57-.024-.848A13.087 13.087 0 0 0 32 6.078z"/></symbol><symbol id="icon-brand" viewBox="0 0 61 32"><path d="M15.29 25.674a.827.827 0 0 1 .211.601.815.815 0 0 1-.078.349l.002-.005a.9.9 0 0 1-.249.318l-.002.001a1.488 1.488 0 0 1-.948.257h.005-1.659v-3.537h1.625a1.478 1.478 0 0 1 .906.238l-.006-.003c.105.081.189.183.243.297s.079.24.073.365a.774.774 0 0 1-.189.541.9.9 0 0 1-.495.277c.22.037.419.144.56.302zm-1.947-.533h.695a.706.706 0 0 0 .442-.117.43.43 0 0 0 .117-.154l.001-.003a.39.39 0 0 0 .032-.155l-.002-.035v.002l.001-.03a.394.394 0 0 0-.034-.161l.001.003a.444.444 0 0 0-.115-.157h-.001a.71.71 0 0 0-.399-.122l-.058.002h.003-.684v.928zm1.205 1.357a.44.44 0 0 0 .127-.16l.001-.003a.406.406 0 0 0 .037-.169l-.001-.03v.001l.001-.025a.399.399 0 0 0-.04-.176l.001.003a.443.443 0 0 0-.129-.163l-.001-.001a.76.76 0 0 0-.426-.129c-.016 0-.032 0-.048.002h.002-.729v.973h.738a.782.782 0 0 0 .466-.122zm4.063.698-.903-1.383h-.34v1.383h-.778v-3.539h1.473a1.532 1.532 0 0 1 1.028.303l-.004-.003c.206.193.33.446.35.714s-.065.534-.241.75a1.225 1.225 0 0 1-.695.359l-.007.001.963 1.414h-.846zm-1.243-1.865h.636c.442 0 .663-.179.663-.536l.001-.029a.494.494 0 0 0-.038-.189l.001.003a.53.53 0 0 0-.126-.183.728.728 0 0 0-.503-.143h.003-.643l.007 1.077zm5.495 1.152h-1.55l-.274.713h-.815l1.423-3.498h.882l1.417 3.498h-.815l-.268-.713zm-.208-.535-.566-1.494-.566 1.494h1.133zm5.529 1.248h-.771l-1.731-2.406v2.406h-.77v-3.539h.77l1.731 2.42v-2.42h.771v3.538zm4.406-.847c-.16.267-.403.485-.699.625-.3.141-.652.224-1.023.224l-.066-.001h.003-1.374v-3.539h1.374l.064-.001c.37 0 .722.081 1.038.225l-.016-.006c.295.137.539.351.698.617.159.288.242.606.242.928s-.083.641-.242.929zm-.883-.085c.22-.235.341-.534.341-.844s-.121-.609-.341-.845a1.412 1.412 0 0 0-.971-.3h.004-.536v2.29h.536a1.412 1.412 0 0 0 .969-.303l-.003.002zM23.346 3.978s9.965 3.445 9.754 8.43v8.431s-9.958-3.446-9.75-8.431l-.003-8.43zm18.631 14.887a14.466 14.466 0 0 1 6.331-2.137v-2.639c-2.618.924-4.84 2.599-6.331 4.775z"/><path d="M40.847 19.66c1.54-2.84 4.21-5.031 7.462-6.123V5.932s-14.191 4.907-13.891 12.006v12.003s.633-.219 1.627-.631c0-.384 0-.771.046-1.16.293-3.295 2.004-6.349 4.757-8.49z"/><path d="M39.497 24.119c.083-.908.259-1.742.519-2.539l-.023.081c-1.713 1.849-2.751 4.143-2.967 6.559a9.827 9.827 0 0 0-.038.691 39.853 39.853 0 0 0 2.958-1.429l-.229.112a11.404 11.404 0 0 1-.221-3.475zm.565.043a10.915 10.915 0 0 0 .188 3.218l-.012-.071c3.877-2.124 8.234-5.406 8.066-9.373v-.346c-2.77.283-5.362 1.393-7.377 3.156a10.716 10.716 0 0 0-.861 3.372l-.003.043z"/></symbol><symbol id="icon-company" viewBox="0 0 61 32"><path d="M20.803 28.17c.009 0 .018.002.026.006s.016.008.022.013l.125.119a1.03 1.03 0 0 1-.351.226 1.366 1.366 0 0 1-.497.082 1.315 1.315 0 0 1-.467-.076 1.031 1.031 0 0 1-.353-.214l.001.001a.947.947 0 0 1-.224-.324l-.002-.006a1.077 1.077 0 0 1-.08-.412v-.013.001-.022c0-.291.126-.552.327-.733l.001-.001c.106-.093.234-.166.374-.215.154-.051.317-.077.482-.076.153-.003.305.021.447.069.123.047.237.111.335.191l-.105.127a.096.096 0 0 1-.026.023.072.072 0 0 1-.036.01h-.006a.1.1 0 0 1-.046-.014l-.055-.034-.078-.043a.86.86 0 0 0-.241-.075l-.005-.001a1.119 1.119 0 0 0-.17-.013h-.017.001-.011c-.12 0-.235.021-.342.059l.007-.002a.773.773 0 0 0-.271.159.74.74 0 0 0-.176.254.847.847 0 0 0-.064.324v.013-.001.014c0 .118.023.23.066.333l-.002-.006a.71.71 0 0 0 .432.41c.102.037.21.055.321.054.063.001.127-.003.19-.011a.749.749 0 0 0 .413-.175l-.001.001a.099.099 0 0 1 .059-.022zm3.599-.599v.012c0 .148-.031.288-.087.415l.003-.007a.92.92 0 0 1-.233.326l-.001.001a1.091 1.091 0 0 1-.361.213l-.008.002a1.516 1.516 0 0 1-.958-.003l.011.003a1.11 1.11 0 0 1-.367-.216l.001.001c-.1-.09-.18-.2-.235-.324l-.002-.006a1.088 1.088 0 0 1 .003-.851l-.003.007a.99.99 0 0 1 .237-.331 1.09 1.09 0 0 1 .366-.207 1.489 1.489 0 0 1 .958.003l-.011-.003c.138.049.263.122.367.215a.952.952 0 0 1 .235.326c.058.135.086.279.084.423zm-.327 0v-.018a.889.889 0 0 0-.062-.327l.002.006a.7.7 0 0 0-.425-.411l-.005-.001a1.078 1.078 0 0 0-.696.002l.008-.002a.751.751 0 0 0-.264.16.68.68 0 0 0-.167.248l-.002.005a.982.982 0 0 0 .002.684l-.002-.007a.696.696 0 0 0 .427.41l.005.001c.222.072.466.072.689 0 .1-.035.19-.089.263-.158a.72.72 0 0 0 .167-.253.875.875 0 0 0 .059-.339zm2.783.355.033.076.035-.076a.683.683 0 0 1 .042-.077l-.002.003.796-1.257c.016-.022.03-.035.046-.04s.034-.007.053-.007h.013-.001.235v2.046h-.279v-1.567l-.001-.035.001-.037v.002l-.802 1.275a.122.122 0 0 1-.046.047h-.001a.136.136 0 0 1-.067.017h-.048a.14.14 0 0 1-.068-.017h.001a.113.113 0 0 1-.046-.046v-.001l-.825-1.283v1.642h-.269V26.55h.246a.21.21 0 0 1 .056.008h-.002a.086.086 0 0 1 .043.039l.813 1.259a.394.394 0 0 1 .039.07l.001.003zm2.996-.101v.766h-.311v-2.042h.721c.129 0 .253.016.372.047l-.01-.002a.791.791 0 0 1 .274.127c.066.053.119.12.154.197l.001.003a.607.607 0 0 1 .053.261v.013a.568.568 0 0 1-.224.452l-.001.001a.773.773 0 0 1-.276.135c-.105.03-.226.048-.351.048h-.026l-.376-.006zm0-.22h.377a.898.898 0 0 0 .242-.031.526.526 0 0 0 .175-.089l-.001.001a.39.39 0 0 0 .143-.303v-.005l.001-.021a.354.354 0 0 0-.032-.146l.001.002a.392.392 0 0 0-.108-.139l-.001-.001a.66.66 0 0 0-.369-.111l-.052.002h.002-.377v.842zm4.188.988h-.251a.115.115 0 0 1-.064-.019.133.133 0 0 1-.041-.047v-.001l-.211-.494H32.41l-.219.494a.115.115 0 0 1-.105.066h-.251l.935-2.046h.324l.947 2.046zm-1.543-.759h.879l-.37-.833a1.383 1.383 0 0 1-.07-.192l-.036.107a.858.858 0 0 1-.034.086l-.367.831zm2.889-1.277a.14.14 0 0 1 .046.037l1.363 1.542v-1.587h.279v2.046h-.159a.151.151 0 0 1-.061-.013h.001a.174.174 0 0 1-.05-.038l-1.361-1.541.001.035-.001.037v-.002 1.52h-.279v-2.046h.165c.019 0 .038.003.056.01zm3.985 1.222v.813h-.311v-.813l-.862-1.231H38.486c.022 0 .043.006.06.018a.202.202 0 0 1 .042.046l.539.794c.022.034.041.065.056.095s.029.058.039.087l.04-.088a.717.717 0 0 1 .053-.093l.531-.8a.206.206 0 0 1 .04-.043.103.103 0 0 1 .062-.021H40.234l-.863 1.238zm-12.67-4.664c.135.015.273.027.411.038 2.102-.817 3.881-2.154 5.113-3.845s1.863-3.659 1.815-5.659l-2.317-2.013c.471 2.13.25 4.331-.637 6.359-.887 2.027-2.406 3.8-4.387 5.12z"/><path d="m25.877 23.022.062.011c2.117-1.315 3.73-3.152 4.632-5.273A9.91 9.91 0 0 0 31 11.137L27.7 8.27c1.334 2.357 1.872 4.994 1.549 7.606-.322 2.611-1.491 5.09-3.371 7.146zm11.19-7.009c-.561 2.198-1.922 4.181-3.882 5.653-.535.408-1.14.79-1.776 1.118l-.069.032c1.597-.407 3.063-1.128 4.289-2.106s2.175-2.188 2.777-3.535l-1.338-1.162z"/><path d="m36.542 15.689-1.905-1.655c-.037 1.887-.654 3.731-1.789 5.342s-2.745 2.926-4.663 3.813h.009c.427 0 .854-.022 1.279-.066 1.793-.635 3.377-1.647 4.61-2.944s2.078-2.839 2.459-4.489zm-10.39-8.628-2.273-1.978c-2.032.682-3.779 1.881-5.014 3.441s-1.898 3.406-1.905 5.299c.007 2.091.818 4.121 2.303 5.767 1.484 1.646 3.558 2.815 5.894 3.322 2.085-2.207 3.306-4.934 3.485-7.785s-.693-5.677-2.489-8.067zm15.642 8.324c-.008-2.481-1.146-4.859-3.166-6.614s-4.757-2.743-7.613-2.751h-.023c-1.372 0-2.692.228-3.921.649l.085-.025 13.917 12.092a8.061 8.061 0 0 0 .72-3.351v-.001z"/></symbol><symbol id="icon-company-tag-line" viewBox="0 0 61 32"><path d="M30.529 15.774a1.673 1.673 0 0 1-.345-1.142v.005-1.647c0-.505.114-.889.344-1.151.229-.263.622-.393 1.18-.392.524 0 .897.111 1.116.335.24.286.357.634.33.986v.387h-.937v-.393a2.045 2.045 0 0 0-.027-.383.371.371 0 0 0-.134-.228l-.001-.001a.54.54 0 0 0-.299-.09l-.042.002h.002l-.04-.001a.572.572 0 0 0-.319.097l.002-.001a.437.437 0 0 0-.155.249l-.001.003a1.841 1.841 0 0 0-.037.375v.033-.002 2c-.015.193.027.386.12.561.049.06.112.107.184.135l.003.001c.076.03.16.04.242.031a.484.484 0 0 0 .333-.091l-.002.001a.407.407 0 0 0 .14-.24v-.002c.019-.108.03-.233.03-.36v-.043.002-.406h.938v.37a1.498 1.498 0 0 1-.327 1.039l.002-.003c-.215.245-.583.367-1.122.367s-.947-.131-1.178-.402zm3.904.016c-.237-.256-.355-.63-.355-1.125v-1.733c0-.489.118-.859.355-1.111s.633-.377 1.188-.375c.551 0 .945.125 1.182.375.237.251.357.622.357 1.111v1.733c0 .49-.12.865-.361 1.123s-.633.387-1.178.387-.949-.131-1.189-.386zm1.624-.415a.976.976 0 0 0 .113-.513V12.74a.94.94 0 0 0-.112-.508l.002.005a.441.441 0 0 0-.188-.137l-.003-.001a.508.508 0 0 0-.182-.033c-.023 0-.045.002-.068.004h.003a.51.51 0 0 0-.251.031l.004-.001a.452.452 0 0 0-.192.137l-.001.001a.921.921 0 0 0-.113.503v2.131a.953.953 0 0 0 .113.513.642.642 0 0 0 .439.172.664.664 0 0 0 .245-.047l-.004.002a.59.59 0 0 0 .198-.127v-.01zm2.231-3.878h1.009l.759 3.197.777-3.198h.982l.099 4.615h-.726l-.078-3.207-.749 3.207h-.583l-.776-3.219-.072 3.219h-.734l.091-4.615zm4.758 0h1.573c.906 0 1.359.437 1.359 1.31 0 .837-.477 1.254-1.431 1.253h-.535v2.051h-.971l.006-4.615zm1.343 1.972c.096.01.193.003.286-.022a.704.704 0 0 0 .248-.123.748.748 0 0 0 .14-.521l.001-.051c0-.131-.017-.258-.05-.378l.002.01a.331.331 0 0 0-.072-.127.4.4 0 0 0-.12-.092l-.002-.001a1 1 0 0 0-.381-.075l-.055.001h.003-.377v1.379h.377zm2.988-1.972h1.042l1.07 4.615h-.905l-.211-1.064h-.93l-.217 1.064h-.918l1.069-4.615zm.891 3.016-.363-1.937-.363 1.937h.726zm2.085-3.016h.68l1.3 2.633v-2.633h.806v4.615h-.646l-1.309-2.749v2.749h-.833l.002-4.615zm4.672 2.855-1.081-2.849h.911l.66 1.83.619-1.83h.891l-1.068 2.849v1.76h-.931v-1.76zM32.027 18.13v.242h-.792v1.875h-.332v-1.875h-.796v-.242h1.92zm2.483 2.117h-.264a.119.119 0 0 1-.065-.02.108.108 0 0 1-.042-.048v-.001l-.229-.503h-1.099l-.229.503a.137.137 0 0 1-.035.057.112.112 0 0 1-.066.02h-.262l.971-2.117h.337l.983 2.109zm-1.607-.786h.916l-.389-.861a1.42 1.42 0 0 1-.069-.189l-.003-.011-.037.113-.035.089-.384.859zm3.28.578c.061.003.122.003.183 0a1.38 1.38 0 0 0 .295-.063c.043-.015.086-.034.13-.052v-.476H36.4a.08.08 0 0 1-.05-.017.061.061 0 0 1-.015-.017.041.041 0 0 1-.005-.019v-.165h.753v.811a1.442 1.442 0 0 1-.399.17l-.01.002c-.08.02-.161.034-.243.043a2.763 2.763 0 0 1-.283.014h-.012c-.171 0-.335-.029-.488-.082l.01.003a1.18 1.18 0 0 1-.39-.223l.002.001a1.04 1.04 0 0 1-.248-.329l-.003-.006a1.045 1.045 0 0 1-.089-.425v-.015.001-.013c0-.155.032-.303.09-.436l-.003.007a.963.963 0 0 1 .25-.335 1.19 1.19 0 0 1 .389-.22c.166-.054.343-.08.52-.079.09 0 .181.006.27.019a1.273 1.273 0 0 1 .594.248l-.093.131a.076.076 0 0 1-.031.028.093.093 0 0 1-.044.011.139.139 0 0 1-.061-.017h.001a1.035 1.035 0 0 1-.101-.053l.006.003a.747.747 0 0 0-.124-.055l-.006-.002a1.208 1.208 0 0 0-.171-.046l-.008-.001a1.417 1.417 0 0 0-.234-.018h-.013.001-.013c-.129 0-.254.021-.369.061l.008-.002a.835.835 0 0 0-.286.168.733.733 0 0 0-.178.258l-.002.005a1.001 1.001 0 0 0 .002.713l-.002-.007a.822.822 0 0 0 .477.434c.123.037.254.051.385.042zm3.095-.033h1.06v.241h-1.383V18.13h.331l-.007 1.875zm2.162.241h-.331V18.13h.331v2.117zm1.235-2.107c.02.01.037.023.051.038l1.419 1.596-.001-.038.002-.039v.002-1.577h.289v2.125H44.256a.154.154 0 0 1-.061-.012h.001a.206.206 0 0 1-.052-.04l-1.417-1.594v1.646h-.278V18.13h.173c.019 0 .038.003.054.01zm4.203-.01v.233h-1.176v.699h.953v.225h-.953v.722h1.176v.233H45.36V18.13h1.518zM12.093 5.058l14.74 3.613v12.662l-14.74-3.611V5.057zm-.946-1.08v14.359l16.629 4.077V8.057L11.147 3.978z"/><path d="M20.059 29.079 3.428 24.998V10.642l16.631 4.079v14.358zM11.423 4.895 25.97 8.463l-6.187 5.343-14.549-3.57 6.189-5.341zm-.276-.917-7.718 6.663L20.06 14.72l7.717-6.664-16.629-4.079zm9.848 24.293 6.781-5.855-6.781-1.664v7.52z"/></symbol><symbol id="icon-company-tagline-here" viewBox="0 0 61 32"><path d="M28.637 3.503h-.078c-.12-.007-.24-.01-.36-.013h-.26c-.227 0-.458.006-.688.017l-.026-.001-.027.001h.001a16.113 16.113 0 0 0-6.106 1.576l.096-.042-.247.119v12.651l.578-.196a22.494 22.494 0 0 1 1.607-.477 19.094 19.094 0 0 1 4.612-.615h.014v1.663c-.207.001-.407.007-.609.017h-.048a18.56 18.56 0 0 0-3.688.575l.129-.029c-1.61.409-3.021.975-4.333 1.699l.093-.047V4.175a16.636 16.636 0 0 1 4.331-1.784l.118-.026c1.256-.338 2.7-.535 4.189-.541h.247c.292.007.577.02.845.04.77.055 1.483.174 2.172.351l-.084-.018v1.637a12.316 12.316 0 0 0-1.981-.303l-.042-.002-.042-.004c-.141-.011-.282-.024-.414-.024zm2.879 1.672c.363.027.739.041 1.119.041a18.041 18.041 0 0 0 4.533-.593l-.125.028a18.1 18.1 0 0 0 4.332-1.701l-.094.047v15.937a16.67 16.67 0 0 1-4.331 1.784l-.118.026c-1.257.337-2.7.533-4.189.539h-.107c-1.092 0-2.153-.137-3.165-.394l.089.019V4.867c.246.057.499.109.756.153.422.071.867.123 1.301.155zm8.111.124-.578.195c-.531.179-1.069.338-1.607.481-1.44.385-3.094.61-4.8.616h-.004c-.377 0-.724-.01-1.059-.032l-.461-.03v13.014l.396.035c.367.032.746.048 1.127.048a15.376 15.376 0 0 0 3.89-.514l-.107.024a15.79 15.79 0 0 0 3.051-1.103l-.095.041.247-.119V5.299zM20.421 25.947a.85.85 0 0 0-.613-.261l-.032.001h.002-.013a.962.962 0 0 0-.365.072l.006-.002a.837.837 0 0 0-.473.475l-.002.006a.919.919 0 0 0-.066.359v2.168c-.006.153.024.305.085.445.051.111.125.21.217.291a.748.748 0 0 0 .297.154c.106.03.215.045.324.045a.914.914 0 0 0 .899-.912v-.243h-.567V28.752a.481.481 0 0 1-.035.183l.001-.003a.345.345 0 0 1-.082.122.402.402 0 0 1-.237.083.289.289 0 0 1-.265-.115l-.001-.001a.504.504 0 0 1-.076-.269l.001-.023v.001-2.021a.7.7 0 0 1 .07-.324.29.29 0 0 1 .244-.133l.035.002h-.001.011c.099 0 .187.048.242.122l.001.001a.453.453 0 0 1 .094.279v.012-.001.187h.561v-.231c0-.133-.025-.26-.072-.377l.002.007a.894.894 0 0 0-.19-.306zm3.367-.024a.976.976 0 0 0-.982-.177.896.896 0 0 0-.517.476l-.002.006a1.005 1.005 0 0 0-.083.419v2.08c-.004.146.025.291.083.425a.847.847 0 0 0 .219.291c.087.08.189.143.299.183a.972.972 0 0 0 .984-.184l-.001.001a.893.893 0 0 0 .214-.291c.058-.134.086-.279.083-.426V26.628a1.01 1.01 0 0 0-.086-.408l.003.006a.947.947 0 0 0-.213-.303zm-.265 2.803a.374.374 0 0 1-.113.3.416.416 0 0 1-.534-.001h.001a.373.373 0 0 1-.114-.268l.002-.034v.001-2.079l-.001-.032c0-.105.044-.201.114-.268a.416.416 0 0 1 .534.001h-.001c.07.068.114.163.114.268 0 .011 0 .023-.002.034v-.001 2.08zm4.687.928v-3.937h-.545l-.716 2.084h-.01l-.722-2.084h-.539v3.937h.562v-2.395h.01l.55 1.693h.281l.555-1.693h.01v2.395h.562zm3.195-3.66a.779.779 0 0 0-.318-.215 1.215 1.215 0 0 0-.386-.061h-.023.001-.835v3.937h.561v-1.537h.289c.175.008.349-.029.506-.108a.816.816 0 0 0 .306-.297l.002-.004a.94.94 0 0 0 .129-.343c.019-.124.03-.267.03-.412v-.037.002a2.212 2.212 0 0 0-.055-.562.845.845 0 0 0-.207-.363zm-.29 1.2a.507.507 0 0 1-.053.207l.001-.003a.31.31 0 0 1-.143.137l-.002.001a.56.56 0 0 1-.234.05l-.032-.001h.001-.256v-1.338h.289l.026-.001c.082 0 .161.019.23.052l-.003-.001a.323.323 0 0 1 .131.143l.001.002a.572.572 0 0 1 .049.219v.262c0 .091.006.186 0 .27h-.006zm2.947-1.476h-.46l-.867 3.937h.561l.165-.846h.765l.165.846h.561l-.889-3.937zm-.518 2.554.276-1.426h.01l.274 1.427h-.561zm4.142-.183h-.01l-.847-2.371h-.539v3.937h.561v-2.367h.011l.857 2.367h.528v-3.937h-.561v2.371zm3.427-2.371-.451 1.566h-.011l-.451-1.566h-.593l.77 2.273v1.664h.561v-1.664l.77-2.273h-.594zm-22.256 5.048h.27v.759h.183v-.759h.269v-.155h-.722v.155zm2.273-.156-.354.914h.195l.075-.208h.365l.078.208h.2l-.363-.914h-.195zm-.029.552.124-.338.124.338H21.1zm2.275.025h.211v.118a.344.344 0 0 1-.217.077h-.013a.231.231 0 0 1-.181-.087.376.376 0 0 1-.068-.218l.001-.021v.001c0-.203.088-.305.263-.305l.02-.001c.09 0 .165.062.187.145v.001l.181-.034c-.039-.179-.167-.269-.387-.269h-.012a.462.462 0 0 0-.308.118.444.444 0 0 0-.132.353v-.002.021c0 .123.044.235.118.322l-.001-.001a.442.442 0 0 0 .318.135l.03-.001h-.001.015a.541.541 0 0 0 .372-.146v-.36h-.396v.154zm2.294-.577h-.185v.914h.64v-.156h-.455v-.758zm1.94 0h-.185v.914h.185v-.914zm1.896.611-.374-.61h-.179v.914h.171v-.597l.367.597h.184v-.914h-.17v.61zm1.715-.099h.455v-.155h-.455v-.2h.49v-.156h-.675v.914h.694v-.156h-.509v-.247zm4.157-.151h-.36v-.36h-.183v.914h.183v-.4h.36v.4h.184v-.914h-.184v.36zm1.725.151h.457v-.155h-.457v-.2h.491v-.156h-.674v.914h.693v-.156h-.509v-.247zm2.339 0c.159-.025.24-.109.24-.254a.211.211 0 0 0-.089-.203h-.001a.503.503 0 0 0-.232-.055l-.037.001h.002-.387v.914h.184v-.383H39.172c.036 0 .071.008.102.022l-.002-.001a.182.182 0 0 1 .065.067l.199.29h.219l-.111-.179a.635.635 0 0 0-.2-.218l-.002-.001zm-.185-.126h-.135v-.23h.145a.461.461 0 0 1 .19.022l-.003-.001c.025.022.04.054.04.09 0 .04-.019.075-.048.096a.496.496 0 0 1-.153.023l-.036-.001h.002zm1.949.126h.455v-.155h-.455v-.2h.491v-.156h-.677v.914h.694v-.156h-.509v-.247z"/></symbol><symbol id="icon-foster-peters" viewBox="0 0 61 32"><path d="M13.798 12.171h-.002c-1.37 0-2.481.987-2.481 2.205v.002c0 1.217 1.111 2.205 2.481 2.205h.002c1.37 0 2.481-.987 2.481-2.205v-.002c0-1.218-1.111-2.205-2.481-2.205zm18.313-.705c-.004-1.691-.762-3.313-2.107-4.509s-3.17-1.87-5.073-1.874c-1.904.003-3.729.677-5.075 1.873s-2.104 2.818-2.109 4.51v9.327s14.362-1.422 14.364-9.326v-.002zM6.286 23.854c.003 1.177.531 2.305 1.467 3.137s2.205 1.302 3.529 1.305c1.324-.003 2.593-.473 3.529-1.305s1.464-1.96 1.467-3.136v-6.49s-9.993.99-9.993 6.489zm4.996 1.163c-.259 0-.511-.069-.727-.196a1.213 1.213 0 0 1-.479-.515l-.003-.007a1.023 1.023 0 0 1-.072-.679l-.001.007c.05-.226.175-.433.358-.595s.416-.273.67-.318a1.45 1.45 0 0 1 .766.07l-.01-.003c.239.088.443.237.587.429s.221.416.221.646v.002c0 .161-.036.314-.101.45l.003-.006a1.178 1.178 0 0 1-.282.378l-.001.001a1.318 1.318 0 0 1-.425.253 1.435 1.435 0 0 1-.501.089h-.001v-.005zm10.1-.64h-.965v.996h-.502v-2.438h1.587v.407h-1.085v.629h.965v.406zm2.413-.167c0 .24-.042.45-.127.631s-.207.32-.366.418a.99.99 0 0 1-.524.148h-.019.001c-.202 0-.383-.049-.541-.146a.976.976 0 0 1-.366-.409l-.003-.006a1.417 1.417 0 0 1-.132-.601v-.023.001-.121c0-.24.043-.451.129-.633a.962.962 0 0 1 .909-.567c.203 0 .383.049.541.147a.947.947 0 0 1 .367.421c.087.182.13.392.13.631v.109zm-.508-.111c0-.255-.046-.45-.137-.583a.447.447 0 0 0-.372-.199h-.021.001-.019a.445.445 0 0 0-.37.197l-.001.002c-.091.13-.138.322-.139.575v.119c0 .249.046.442.137.579s.223.206.395.206h.02a.444.444 0 0 0 .368-.196l.001-.002c.09-.133.136-.326.137-.579v-.119zm2.137.634v-.014a.256.256 0 0 0-.1-.203h-.001a1.29 1.29 0 0 0-.362-.161 2.633 2.633 0 0 1-.428-.174l.015.007c-.277-.149-.415-.351-.415-.604a.59.59 0 0 1 .11-.351.733.733 0 0 1 .32-.243 1.21 1.21 0 0 1 .469-.087c.174 0 .329.032.466.095s.242.151.316.266a.696.696 0 0 1 .114.392h-.503c0-.112-.034-.198-.105-.259a.428.428 0 0 0-.296-.094.461.461 0 0 0-.286.078.244.244 0 0 0-.102.198v.007c0 .079.04.146.119.199.08.054.198.104.353.151.286.086.494.193.625.32s.196.286.196.475c0 .211-.08.377-.24.497-.159.119-.374.179-.644.179-.187 0-.358-.034-.513-.102a.826.826 0 0 1-.351-.281l-.002-.003a.722.722 0 0 1-.12-.4v-.016.001h.503c0 .269.161.403.482.403a.475.475 0 0 0 .28-.072.24.24 0 0 0 .1-.195v-.01zm2.681-1.391h-.746v2.031h-.503v-2.031h-.735v-.407h1.985v.407zm1.754.975h-.964v.653h1.131v.404h-1.634v-2.438h1.631v.407h-1.129v.581h.965v.393zm1.364.164h-.4v.893h-.502v-2.438h.906c.288 0 .51.064.666.193s.234.31.234.544a.748.748 0 0 1-.109.417.738.738 0 0 1-.321.262l-.005.002.527.997v.023h-.539l-.457-.891zm-.4-.407h.406a.417.417 0 0 0 .293-.095.347.347 0 0 0 .104-.248l-.001-.02v.001c0-.114-.033-.205-.098-.271s-.165-.099-.3-.099h-.403v.731zm3.044.44v.859h-.502v-2.438h.951c.183 0 .344.034.482.101.139.067.247.162.322.286s.112.263.112.421a.702.702 0 0 1-.246.566c-.163.137-.389.206-.678.206h-.44zm0-.407h.449c.133 0 .234-.031.303-.094.071-.063.106-.152.106-.269v-.018a.4.4 0 0 0-.106-.272.394.394 0 0 0-.291-.114h-.461v.766zm3.177.21h-.964v.653h1.131v.404h-1.634v-2.438h1.631v.407h-1.129v.581h.965v.393zm2.331-.975h-.747v2.031h-.502v-2.031h-.737v-.407h1.986v.407zm1.754.975h-.963v.653h1.131v.404h-1.634v-2.438h1.631v.407h-1.128v.581h.964v.393zm1.365.164h-.4v.893h-.503v-2.438h.906c.288 0 .51.064.666.193s.234.31.234.544a.756.756 0 0 1-.109.417.735.735 0 0 1-.322.262l-.005.002.527.997v.023h-.539l-.457-.891zm-.4-.407h.405a.417.417 0 0 0 .293-.095.343.343 0 0 0 .104-.248l-.001-.019v.001a.367.367 0 0 0-.099-.271c-.065-.066-.165-.099-.299-.099h-.403v.731zm2.951.659v-.014a.255.255 0 0 0-.1-.203h-.001a1.29 1.29 0 0 0-.362-.161 2.67 2.67 0 0 1-.428-.174l.015.007c-.277-.149-.415-.351-.415-.604a.59.59 0 0 1 .11-.351.733.733 0 0 1 .32-.243 1.21 1.21 0 0 1 .469-.087c.174 0 .329.032.466.095s.242.151.316.266a.696.696 0 0 1 .114.392h-.503c0-.112-.034-.198-.105-.259a.428.428 0 0 0-.296-.094.461.461 0 0 0-.286.078.243.243 0 0 0-.103.199v.006c0 .079.04.146.119.199s.198.104.353.151c.286.086.494.193.625.32s.196.286.196.475c0 .211-.08.377-.24.497-.159.119-.374.179-.644.179-.187 0-.358-.034-.513-.102a.826.826 0 0 1-.351-.281l-.002-.003a.722.722 0 0 1-.12-.4v-.016.001h.503c0 .269.161.403.482.403a.47.47 0 0 0 .279-.072.24.24 0 0 0 .101-.195v-.01z"/></symbol><symbol id="icon-ya-and-co" viewBox="0 0 61 32"><path d="m21.714 4.112 4.005 3.791-7.433-.005v18.393h19.429v-7.033l4 3.787V4.111h-20zm15.824 14.702L26.184 8.065h11.354v10.749zm-3.525 4.787H21.36v-12.37h.894v11.532h11.759v.838zm-9.664 5.139-.467.962-.467-.962h-.392l.682 1.283v.748h.354v-.749l.681-1.283h-.39zm.587 2.031.165-.473h.787l.166.473h.369l-.769-2.031h-.317l-.767 2.031h.367zm.558-1.6.294.843h-.589l.294-.843zm1.861.794a.46.46 0 0 0-.077.255v.003c0 .171.06.31.18.417s.282.159.482.159a.839.839 0 0 0 .519-.163l.114.135h.393l-.298-.353c.117-.16.175-.365.175-.615h-.294a.822.822 0 0 1-.085.373l-.392-.463.138-.101a.784.784 0 0 0 .209-.209l.002-.003a.447.447 0 0 0 .064-.231v-.012a.418.418 0 0 0-.142-.314.51.51 0 0 0-.342-.131h-.022.001a.538.538 0 0 0-.39.139.495.495 0 0 0-.145.377c0 .065.015.132.046.202.032.07.087.154.166.254-.15.107-.251.201-.302.28zm.916.449a.518.518 0 0 1-.32.114h-.017a.304.304 0 0 1-.317-.305v-.012.001c0-.109.056-.206.167-.29l.043-.031.443.523zm-.364-.9c-.096-.118-.144-.217-.144-.294 0-.069.02-.125.059-.169a.2.2 0 0 1 .149-.067h.016c.056 0 .107.022.145.057.04.037.06.082.06.135v.007a.248.248 0 0 1-.086.189l-.043.035-.155.106zm3.307 1.103a.736.736 0 0 0 .24-.507h-.351c-.019.145-.063.249-.133.311s-.174.093-.313.093a.392.392 0 0 1-.346-.173c-.078-.115-.118-.282-.118-.502v-.18c.002-.217.044-.381.126-.493a.413.413 0 0 1 .354-.169c.132 0 .232.033.3.098s.111.17.129.315h.351c-.023-.222-.102-.394-.238-.516s-.317-.183-.542-.183a.831.831 0 0 0-.441.118.77.77 0 0 0-.289.333l-.002.005a1.166 1.166 0 0 0-.103.483v.025-.001.19c.003.187.038.351.105.492s.162.251.285.328a.795.795 0 0 0 .429.114c.231 0 .417-.061.557-.181zm2.074-.284c.069-.151.103-.326.103-.525v-.134c0-.181-.039-.352-.109-.506l.003.008a.78.78 0 0 0-.294-.342l-.003-.002c-.128-.08-.274-.12-.44-.12s-.312.04-.441.121a.8.8 0 0 0-.297.347 1.227 1.227 0 0 0-.105.499v.026-.001.114c.001.194.036.366.106.515.071.149.17.264.299.345s.276.12.441.12c.167 0 .314-.04.441-.12s.227-.196.295-.346zm-.378-1.148c.086.12.128.293.128.518v.106c0 .229-.042.403-.127.522a.412.412 0 0 1-.36.179h-.015a.42.42 0 0 1-.347-.182l-.001-.001c-.087-.122-.13-.294-.13-.518v-.117c.002-.219.046-.387.131-.506a.416.416 0 0 1 .343-.18h.016-.001c.157 0 .277.06.362.18z"/></symbol><symbol id="icon-close" viewBox="0 0 32 32"><path d="M32 3.223 28.777 0 16 12.777 3.223 0 0 3.223 12.777 16 0 28.777 3.223 32 16 19.223 28.777 32 32 28.777 19.223 16 32 3.223z"/></symbol><symbol id="icon-check" viewBox="0 0 32 32"><path d="m4.817 15.389-.169-.162-2.544 2.41 8.962 8.55L29.895 8.225l-2.527-2.411L11.066 21.35l-6.249-5.962z"/></symbol><symbol id="icon-email-black" viewBox="0 0 32 32"><path d="M26.667 5.333H5.334A2.663 2.663 0 0 0 2.681 8l-.013 16c0 1.467 1.2 2.667 2.667 2.667h21.333c1.467 0 2.667-1.2 2.667-2.667V8c0-1.467-1.2-2.667-2.667-2.667zM26.133 11l-9.427 5.893a1.346 1.346 0 0 1-1.413 0L5.866 11a1.132 1.132 0 1 1 1.2-1.92l8.933 5.587 8.933-5.587a1.132 1.132 0 1 1 1.2 1.92z"/></symbol><symbol id="icon-phone-black" viewBox="0 0 32 32"><path d="m24.882 19.773-3.268-.373a2.561 2.561 0 0 0-2.11.733L17.137 22.5a19.357 19.357 0 0 1-8.478-8.478l2.38-2.38a2.561 2.561 0 0 0 .733-2.11l-.373-3.242a2.575 2.575 0 0 0-2.56-2.277H6.613c-1.454 0-2.663 1.209-2.573 2.663.682 10.987 9.469 19.761 20.443 20.443 1.454.09 2.663-1.119 2.663-2.573V22.32a2.549 2.549 0 0 0-2.264-2.547z"/></symbol><symbol id="icon-person-black" viewBox="0 0 32 32"><path d="M16 16c2.947 0 5.333-2.387 5.333-5.333S18.946 5.334 16 5.334c-2.947 0-5.333 2.387-5.333 5.333S13.054 16 16 16zm0 2.667c-3.56 0-10.667 1.787-10.667 5.333v1.333c0 .733.6 1.333 1.333 1.333h18.667c.733 0 1.333-.6 1.333-1.333V24c0-3.547-7.107-5.333-10.667-5.333z"/></symbol><symbol id="icon-send" viewBox="0 0 32 32"><path d="M32 0 0 18l10.227 3.788L26 7 14.002 23.186l.01.004-.012-.004V32l5.735-6.691L27 28l5-28z"/></symbol></defs></svg>